# xmcd
#
# Track frame offsets:
#	150
#	18775
#	37525
#	53193
#	72056
#	90166
#	107176
#	137876
#	153076
#	166913
#	180589
#	190815
#	207912
#	224459
#
# Disc length: 3187 seconds
#
# Revision: 0
# Processed by: cddbd v1.5.1PL0 Copyright (c) Steve Scherf et al.
# Submitted via: EasyCDDAExtractor 8.1.0.1
#
DISCID=ac0c710e
DTITLE=Mark Tolstrup - Root Magic
DYEAR=2005
DGENRE=Blues
TTITLE0=When You've Got A Good Friend
TTITLE1=Root Magic
TTITLE2=Monkey Dance, Shake Shake Baby
TTITLE3=Careless Love
TTITLE4=Motherless Child
TTITLE5=I'll Be Your Man
TTITLE6=Old Man's Blues
TTITLE7=Good Morning Blues
TTITLE8=Lord Help The Poor And Needy
TTITLE9=Crash On The Levee
TTITLE10=Good Rockin' Tonight
TTITLE11=The Second Day of November
TTITLE12=Since I Met You Baby
TTITLE13=Your Cheatin' Heart
EXTD=
EXTT0=
EXTT1=
EXTT2=
EXTT3=
EXTT4=
EXTT5=
EXTT6=
EXTT7=
EXTT8=
EXTT9=
EXTT10=
EXTT11=
EXTT12=
EXTT13=
PLAYORDER=
